<?xml version="1.0" standalone="no"?>
<!DOCTYPE svg PUBLIC "-//W3C//DTD SVG 1.1//EN" "http://www.w3.org/Graphics/SVG/1.1/DTD/svg11.dtd" >
<svg xmlns="http://www.w3.org/2000/svg">
<metadata></metadata>
<defs>
<font id="dingleberry_solidregular" horiz-adv-x="847" >
<font-face units-per-em="2048" ascent="1638" descent="-410" />
<missing-glyph horiz-adv-x="508" />
<glyph horiz-adv-x="0" />
<glyph unicode="&#xd;" horiz-adv-x="682" />
<glyph unicode=" "  horiz-adv-x="508" />
<glyph unicode="&#x09;" horiz-adv-x="508" />
<glyph unicode="&#xa0;" horiz-adv-x="508" />
<glyph unicode="A" horiz-adv-x="665" d="M-13 -322q186 1358 231 1815q9 165 21 165q42 9 99 15q171 0 171 -18q132 -827 132 -1092q18 -211 18 -414v-405q0 -53 6 -117q-8 -27 -27 -27q-99 17 -99 63q-15 310 -45 579q-22 171 -36 171h-3q-24 0 -39 3q-26 -3 -45 -3q-15 0 -87 6q-12 -21 -54 -249 q-30 -104 -111 -450q-24 -75 -45 -75q-87 11 -87 33zM266 527q0 -29 132 -39l18 3h45q33 0 33 30v33q0 58 -30 336q-27 549 -69 549h-12l-36 3q0 -2 -6 -21q0 -94 -30 -453q0 -160 -45 -441z" />
<glyph unicode="B" horiz-adv-x="700" d="M-6 -366q0 4 28 23v3q-5 12 -5 33l4 93q0 24 -1 63l3 6l-2 27q12 816 12 1172q0 275 -7 275q-7 120 -7 198v33l1 15q1 28 -10 46q6 26 26 26h2q53 -23 128 -26q306 -10 381 -172q35 -84 35 -170v-17q-13 -390 -131 -500q-13 -14 -22 -26v-3q160 -129 203 -293 q32 -179 32 -404q0 -56 -2 -116q-4 -115 -141 -238q-104 -67 -246 -76q-74 -9 -129 -10q-12 3 -21 4v-3l-6 3q-20 0 -66 -4q-60 2 -59 35v3zM119 1479q9 -23 9 -82q0 -16 -1 -35q35 -282 35 -481q0 -38 -1 -73v-15q0 -72 27 -73h5q98 0 199 152q46 95 69 268 q-12 167 -23 199q-29 103 -85 135q-17 24 -122 40l-6 -3q-9 1 -21 4h-7q-59 0 -60 -16q-18 -13 -18 -20zM165 565l8 -199q15 -149 15 -439q0 -87 -1 -186q1 -30 26 -30l3 -1h16q87 0 135 31q189 76 199 356q1 24 1 46q0 206 -67 293q-156 179 -270 183h-9q-30 0 -37 -13v-3 q12 -14 12 -15l-1 -9q-24 1 -30 -14z" />
<glyph unicode="C" horiz-adv-x="800" d="M51 687q0 509 177 774q75 109 198 147q212 39 264 39h54q78 0 78 -114v-27q0 -51 -51 -51q-141 -12 -225 -42q-116 -23 -174 -78q-87 -111 -87 -240q-24 -312 -24 -396q0 -216 48 -438q58 -214 141 -264q238 -147 339 -171q60 -18 60 -24q3 -6 3 -9q0 -138 -48 -138 q-40 -3 -60 -3q-125 0 -333 99q-176 96 -279 381q-81 244 -81 555z" />
<glyph unicode="D" horiz-adv-x="1063" d="M48 1490q0 153 24 153q34 6 162 9q146 0 372 -111q194 -114 294 -384q138 -343 138 -588q0 -379 -231 -675q-112 -120 -171 -147q-104 -56 -210 -90q-78 -18 -276 -57q-84 0 -84 48v69l12 468q-27 785 -27 864q3 38 3 93v39q0 61 -6 309zM183 1490q9 -46 24 -357v-144 q0 -17 3 -48q-3 -5 -3 -15l27 -858q0 -92 -3 -276q12 -30 60 -30q70 25 81 33q155 69 297 198q213 242 213 558v33q0 216 -90 429q-68 155 -228 303q-156 112 -258 162q-79 15 -93 30q-30 -6 -30 -18z" />
<glyph unicode="E" horiz-adv-x="862" d="M44 1564q0 75 27 75q12 3 24 3q24 0 39 -3q74 6 213 6h117q195 -12 309 -12q42 0 42 -69q0 -87 -21 -87q-7 0 -12 -3q-38 0 -204 9h-9q-30 0 -75 -3q-3 0 -9 3q-33 -3 -57 -3h-72q-108 0 -108 -18q-2 -6 -6 -60q11 -345 21 -345h3q333 0 333 -36q4 -47 6 -51 q0 -99 -24 -99h-6q-50 0 -78 -3q-59 3 -129 3q-87 0 -93 -15v-18q39 -233 39 -831v-105h3q343 -18 444 -18q83 3 135 3q30 -16 30 -90q2 0 12 -99q0 -25 -33 -30q-113 12 -123 12q-645 -24 -645 -36q-3 0 -9 3q-48 -6 -57 -6q-18 0 -18 27v363q0 17 3 48l-3 6q0 3 3 3l-3 36 q-6 629 -6 693q6 310 6 426z" />
<glyph unicode="F" d="M47 1669q0 8 30 24q104 -3 150 -3h90q91 0 435 12h75q36 0 36 -42q-11 -114 -36 -114q0 -11 -291 -18q-51 0 -102 3l-195 -9l-3 -6q0 -72 30 -339q3 -80 3 -171v-42l12 -3q42 0 219 3l18 3q16 -3 30 -3h60q45 0 45 -81q4 0 12 -57q0 -25 -99 -36q-46 -11 -246 -30 q-32 0 -51 -21q0 -31 3 -96q-3 -244 -3 -333q0 -6 -3 -33q0 -3 3 -3l-3 -27q3 -455 6 -556q-5 -69 -36 -69q-88 -12 -102 -12q-69 17 -69 48q-3 116 -3 171h-3q0 3 3 3q0 4 -3 30l-6 289v54q0 74 9 1020q0 41 -15 444z" />
<glyph unicode="G" horiz-adv-x="900" d="M54 685q3 16 3 27v72q1 165 60 387q81 199 159 270q178 159 303 159h6q91 0 201 -66q54 -57 63 -57q32 0 48 -27q-31 -135 -42 -135q0 -6 -15 -6h-3q-86 57 -213 57q-134 0 -243 -138q-58 -130 -99 -282q-45 -183 -45 -291q4 -160 117 -459q131 -259 345 -342q6 8 6 9 q0 10 -3 15q24 181 24 318q0 111 -18 111q-38 12 -156 33q-60 15 -60 54q0 69 24 69l15 3l90 -6q2 0 12 3q237 -9 237 -24q22 0 30 -369q-7 -328 -24 -375q0 -39 -60 -39q-85 0 -105 -3q-182 0 -381 207q-95 121 -168 294q-108 319 -108 531z" />
<glyph unicode="H" horiz-adv-x="700" d="M10 1673q2 15 18 15h6q17 0 39 -33q15 -3 81 -6q36 3 54 3q39 -8 39 -30q-6 -14 -9 -102l18 -594v-93q0 -26 3 -81q64 -27 225 -27q6 39 6 96q0 40 -3 48q3 53 3 90v183q0 35 -6 336q0 3 -3 9q3 5 3 12t-3 45q0 3 3 9q-3 21 -3 33v9q0 102 21 102l36 3q156 0 156 -57 q6 -40 6 -120q0 -108 -6 -255l6 -309q-21 -390 -21 -540q0 -139 15 -630l3 -12q0 -32 -108 -39q0 -3 -45 -9q-21 0 -21 135q-16 693 -39 693h-108l-135 12q-2 -5 -6 -36q12 -186 12 -228v-66q0 -44 -3 -120l3 -18l-3 -18q3 -60 3 -105v-81q0 -17 -3 -48l3 -6q-3 -33 -3 -57 v-48q0 -54 -51 -54q-40 0 -138 -21q-18 6 -18 24v9q-6 132 -6 144v27q0 54 15 54q9 0 9 9q-21 327 -21 552l-3 12q0 3 3 3q-6 147 -6 441v30q0 12 -3 33q0 3 3 3q0 15 -3 36q3 220 3 258q0 375 -18 375z" />
<glyph unicode="I" horiz-adv-x="400" d="M-27 1562v6q-1 36 23 37q85 18 152 26q21 0 39 -0.5t33 0.5q47 8 63 8h3h4q53 0 55 -58l3 -72q1 -32 -35 -43q-33 -6 -32 -16v-12q3 -94 8 -153q2 -38 2 -253q0 -143 -1 -365q10 -284 10 -578q0 -126 -2 -253q2 -54 23 -54q54 -6 55 -25l-3 -6l1 -33v-17q0 -71 -24 -71 q0 -5 -203 -25q-141 4 -142 34q-10 66 -10 97q0 33 94 65q0 423 -11 1342q2 0 2 62q0 74 -3 238q-97 15 -98 53q-4 35 -6 66z" />
<glyph unicode="J" horiz-adv-x="800" d="M-7 -150q0 39 156 51q170 36 213 72q98 61 150 243q75 207 75 510l-3 18q0 15 3 60q-33 432 -33 552q0 62 3 276q3 6 3 9q-6 11 -6 24q18 10 18 12q47 -3 69 -3q26 0 81 3q36 -13 36 -36v-93l33 -456q9 -128 9 -321v-75q0 -92 -57 -504q-36 -166 -129 -255 q-103 -90 -195 -132q-127 -72 -234 -93q-24 -8 -99 -12q-78 0 -78 45q-15 90 -15 105z" />
<glyph unicode="K" d="M0 -331q9 11 9 21v162q0 287 12 483h-3q3 6 3 9q12 237 15 408h-3q0 3 3 3q-3 27 -3 33q0 554 -18 789v51q0 33 114 33q75 0 75 -42q13 -397 24 -534q9 -51 21 -192h9q184 504 234 669q16 96 45 96h9q49 0 96 3q78 0 78 -36q-39 -191 -93 -327q-194 -537 -312 -720v-9 q115 -169 339 -480l228 -357q0 -2 21 -39v-3q0 -34 -114 -42q-6 0 -21 -6q-31 3 -48 3h-18q-28 0 -102 123q-89 113 -336 465l-9 6h-3q0 -49 15 -546q-11 -42 -45 -42q-20 9 -33 9h-30q-91 0 -135 -18q-24 3 -24 24v3z" />
<glyph unicode="L" d="M9 1602q0 36 54 36q38 0 141 -3q39 -9 39 -39q9 -272 39 -675l15 -759q6 -34 15 -255v-6l3 -6q307 6 516 12q57 0 57 -57l12 -108q0 -31 -39 -36q-17 0 -33 3q-188 -21 -558 -39q0 -5 -132 -12q-63 19 -63 63q-24 325 -39 1251q-12 181 -27 630z" />
<glyph unicode="M" horiz-adv-x="1103" d="M27 -239q0 4 9 93q-4 201 -4 554q0 441 6 1118q3 111 30 110q45 13 152 28q35 -2 190 -226q89 -130 159 -258h3q16 20 123 272q10 10 68 136q15 45 58 45h4l244 16q12 0 31 -31q-6 -50 -25 -395q0 -3 2 -19q-4 -32 -5 -56q6 -431 27 -1367l-4 -36q2 -22 1 -54h3 q0 -19 -40 -29h-6q-117 4 -116 31q-12 1 -12 237q0 97 2 235q-11 109 -13 400q-48 598 -48 756v26h-3q-11 -6 -86 -141q-54 -79 -179 -300q-22 -5 -24 -5q-13 0 -112 139q-125 153 -155 200q-59 107 -74 108l-1 -3q-3 -182 -3 -318q0 -186 6 -285q17 -137 26 -557l18 -430 v-3q-16 -23 -43 -22l-36 1h-1q-18 0 -117 -26l-15 1q-18 8 -23 22q6 9 6 14q-11 1 -23 19z" />
<glyph unicode="N" horiz-adv-x="1037" d="M37 1670q11 8 39 15q50 -3 78 -3q27 0 60 3q44 -6 60 -6q41 3 57 3q34 0 72 -126q59 -113 195 -534q168 -461 195 -546h6v36q0 235 3 438q-3 155 -6 219q0 3 3 9q-3 42 -3 72v87q0 84 9 288q-3 33 -3 60q0 15 144 15h15q29 0 45 -30l-3 -18q0 -117 -12 -390q3 -23 3 -48 q0 -227 18 -588l-51 -888q-10 -66 -48 -66q-19 0 -30 3q-52 -3 -171 -6q-19 0 -21 27l18 441v9q0 59 -153 390q-121 361 -207 507q-81 170 -99 222h-9v-3q15 -564 21 -891l39 -708q3 0 3 -12q0 -34 -78 -39l-51 -9l-36 3q-43 -3 -48 -3q-11 3 -18 12l12 33h-18q-18 8 -18 54 q15 39 15 120l-3 393q0 20 -3 30q3 45 3 84v18q0 258 12 525q0 3 -3 3l3 15v51q-12 592 -33 687q-3 26 -3 42z" />
<glyph unicode="O" horiz-adv-x="961" d="M35 837q0 479 174 654q82 126 294 189q38 9 66 9h36q63 0 99 -33q43 -14 75 -72q55 -64 123 -474q42 -253 42 -426v-99q0 -600 -189 -816q-156 -126 -261 -126q0 -3 -9 -3q-149 0 -303 237q-147 238 -147 960zM146 738q0 -159 33 -387q57 -343 102 -408 q108 -144 213 -144h9q20 0 66 33q80 50 117 123q43 96 72 306q42 260 42 477q0 108 -81 525q-10 66 -78 201q-42 49 -171 78q-48 0 -162 -108q-162 -215 -162 -618v-78z" />
<glyph unicode="P" horiz-adv-x="866" d="M34 -214q0 7 27 18v126q0 84 6 216q-6 488 -21 849q0 3 3 3l-3 36q12 663 24 663q49 21 105 21h3q90 0 348 -81q169 -69 237 -204q43 -70 75 -189q18 -76 18 -123q0 -124 -117 -276q-132 -132 -360 -198q-123 -31 -123 -48v-21q0 -42 9 -126q0 -334 -30 -783q3 -21 3 -24 q-19 -36 -39 -36q-16 3 -24 3l-45 -12q-75 0 -75 30q0 27 -21 156zM202 1475l9 -246q0 -39 -3 -153q3 -133 3 -207q0 -24 -6 -84q0 -48 27 -48q132 30 174 60q59 22 165 132q114 100 114 258q0 154 -93 231q-217 162 -354 162q-36 -5 -36 -42v-63z" />
<glyph unicode="Q" horiz-adv-x="1200" d="M32 580q0 174 96 603q53 218 183 345q122 114 291 114q37 -3 39 -3q0 7 24 9q176 -42 255 -123q258 -251 258 -768q0 -291 -114 -516q-47 -116 -93 -192v-3l141 -237l24 -54q-72 -90 -108 -90h-3q-4 0 -93 111q-107 102 -114 102q-145 -141 -198 -147q-69 -21 -90 -21h-3 q-104 0 -255 81q-115 68 -177 258q-63 231 -63 531zM143 517q0 -245 99 -420q102 -228 264 -228q58 0 120 39q135 121 135 135q-3 0 -3 6q-111 162 -111 186q0 10 63 30q11 0 36 -33q73 -96 78 -96l42 27q42 0 114 279l36 390q0 143 -24 252q-40 224 -144 348 q-107 89 -213 99h-12q-66 -11 -129 -30q-64 -18 -132 -129q-81 -152 -126 -291q-93 -368 -93 -564z" />
<glyph unicode="R" horiz-adv-x="900" d="M23 1582l1 18q2 54 156 54q18 0 38 -1q38 4 108 4q50 0 117 -2l60 -2q255 -9 324 -264q44 -195 44 -423q0 -44 -2 -89q-10 -285 -226 -448q-15 -15 -16 -27v-3q68 -216 135 -683v-3q-1 -35 -130 -40q0 -2 -94 -12q-15 5 -14 22l1 21q-31 340 -46 412l-37 215q-3 0 -3 3 q-114 -11 -181 -24l-4 -21q-1 -24 27 -256l7 -225q-4 -36 -6 -81v-21q-2 -45 -95 -54l-45 2q-9 0 -64 -16h-3q-11 1 -19 52q-3 0 -5 15q5 240 10 378l4 135q1 31 1 79q0 301 -43 1285zM162 1508q-1 -3 2 -3q4 -75 16 -237q7 -1 7 -231q0 -126 -2 -319l-3 -90v-17 q0 -42 8 -85v-14q0 -67 27 -68l21 -1h8q10 0 10 2q101 4 207 62q148 72 201 167q44 74 71 244q0 6 0.5 23t-0.5 43q0 3 7 51q1 23 1 46q0 219 -81 311q-81 150 -316 158l-63 2q-121 -25 -121 -35v-9z" />
<glyph unicode="S" horiz-adv-x="800" d="M0 -180q14 24 222 114q215 115 243 165q93 117 93 318q0 59 -168 204q-270 277 -270 447q0 133 72 324q32 76 132 171q110 77 222 99q32 12 57 12h3q192 -16 192 -63l12 -102q0 -7 -21 -18q-56 21 -135 21q-136 0 -246 -108q-36 -44 -78 -156q-24 -68 -24 -105 q0 -137 165 -300q2 -10 183 -189q81 -116 81 -210q3 0 3 -3q0 -140 -99 -312q-30 -98 -180 -249q-125 -119 -249 -150q-67 -15 -150 -30q-57 0 -57 99q-3 0 -3 21z" />
<glyph unicode="T" horiz-adv-x="941" d="M2 1390q3 42 3 72v12q0 6 3 48l48 9q1 -6 6 -6h108q110 0 576 51q131 24 162 24t33 -48v-6q0 -108 -36 -108q-115 -9 -216 -9q-69 -12 -69 -27q-3 -5 -3 -12q6 -184 9 -432l-9 -756l-21 -372q-4 -66 -33 -66q-103 -9 -183 -21q-24 0 -24 39q3 26 3 42v15q51 1055 51 1188 v15q0 345 -12 345l-363 -15q-27 0 -33 18z" />
<glyph unicode="U" horiz-adv-x="1100" d="M20 1598v6q0 8 24 12h84q78 0 78 -18q-9 -15 -9 -87v-15q0 -11 3 -27l-3 -6l3 -21q-3 -120 -6 -159q18 -308 27 -834q23 -380 63 -486q43 -116 135 -162q45 -15 60 -15q205 0 240 42q60 35 87 114q36 72 66 840q-15 241 -15 480h-3l3 6v3q0 7 -3 12q0 3 3 3q-3 35 -3 51 v225q0 48 45 48q67 0 108 6q36 -7 36 -30v-39q17 -140 42 -648q15 -97 15 -285v-30q0 -274 -111 -660q-91 -204 -135 -237q-46 -49 -183 -75q-50 -12 -90 -12h-6q-371 0 -468 258q-45 157 -45 348q-39 539 -39 636v423q0 64 3 144q-3 5 -3 105v36q0 3 6 24v3q0 10 -9 21z " />
<glyph unicode="V" horiz-adv-x="1300" d="M-24 1528q-1 6 -1 12q0 60 154 60q47 0 63 -51q35 -74 54 -237q0 -21 126 -345q60 -129 114 -333l198 -531l57 -189h3q12 18 84 333q84 287 174 804q52 248 147 525q17 9 78 9h36q72 -8 72 -36q-26 -191 -102 -462l-72 -297q-84 -275 -159 -612q-60 -239 -135 -468 q-34 -93 -78 -93h-39q-30 0 -72 3q-12 -2 -12 -6q-29 0 -45 90q-123 350 -237 612q-168 436 -291 858q-87 253 -117 354z" />
<glyph unicode="W" horiz-adv-x="1900" d="M0 1549q0 21 96 21h69q63 0 63 -36q9 -46 45 -174q54 -232 108 -441q0 -15 93 -396q0 -74 96 -381q12 -51 18 -51q69 301 114 546q0 26 111 30l51 9l21 -3h24q32 0 66 9q36 0 75 -171q48 -209 147 -498q0 -9 6 -9q5 5 48 141q111 370 222 708q120 404 186 732q9 15 30 15 q171 -10 171 -30q9 -3 9 -18q0 -8 -33 -51q-36 -75 -66 -243q0 -46 -81 -336q-30 -136 -222 -765q-27 -89 -87 -336q-24 -80 -39 -165q0 -14 -198 -24h-18q-47 0 -66 102q-29 76 -72 300q-45 144 -99 372h-3q-6 0 -114 -465q-70 -300 -96 -300l-123 -30q-44 0 -60 90 q-186 721 -258 981q-105 344 -177 663q-18 56 -57 204z" />
<glyph unicode="X" horiz-adv-x="1000" d="M0 1578q4 6 8 11l-8 11l73 18q15 12 65 15l27 7v-5h21q20 0 63 -168q90 -277 201 -528q24 -88 33 -99l271 737q32 100 51 105q0 15 21 15q29 3 63 3h27q26 0 39 -21v-12q-33 -33 -156 -390q-124 -342 -226 -626q-6 -1 -12 -15q151 -293 249 -501q60 -143 126 -336 q19 -34 69 -141q-26 -45 -90 -45h-54q-17 0 -45 -6q-14 0 -45 111q-117 308 -219 498q-95 186 -99 186q-153 -448 -225 -648q-33 -138 -54 -138q-5 -3 -12 -3q-13 0 -42 18q-61 -12 -72 -12q-17 0 -30 12q0 58 66 234q147 391 252 738v3q-18 96 -123 381q-180 470 -213 591z " />
<glyph unicode="Y" horiz-adv-x="936" d="M-52 1679q0 5 12 9l21 -3q21 0 21 6l21 -3h18l120 12q45 0 75 -102q72 -166 201 -561q33 -92 60 -132q11 0 72 198q138 398 198 552h6l27 -3q22 8 105 18h6q36 -21 36 -33q-24 -75 -165 -459q-54 -201 -159 -408q-39 -49 -39 -93l-3 -27q6 -45 6 -99l-48 -681 q-13 -276 -36 -276q-41 -8 -117 -15q-23 0 -33 24q0 49 3 96q-6 269 -6 369q0 379 18 630q-27 54 -204 471q-68 150 -168 411q-48 86 -48 99z" />
<glyph unicode="Z" horiz-adv-x="910" d="M-4 -376q38 123 219 498q62 147 162 327q198 323 468 1011l-3 6l-420 -33h-6q-6 -1 -6 -6l-54 -6q-5 0 -12 177q18 33 48 33q69 0 513 24q54 0 87 3q12 -3 21 -3q31 3 51 3q57 -12 57 -39q-29 -100 -207 -513q-94 -192 -150 -324q-138 -285 -282 -594q-61 -115 -195 -333 q-27 -39 -27 -51h9q68 6 72 6h120q25 0 246 9h45l135 12q60 0 60 -162q-13 -5 -90 -12q0 -4 -30 -9q-17 0 -33 3q-234 0 -498 -30q-3 0 -3 3q-161 -6 -255 -24q-42 7 -42 24z" />
<glyph unicode="a" horiz-adv-x="665" d="M-13 -322q186 1358 231 1815q9 165 21 165q42 9 99 15q171 0 171 -18q132 -827 132 -1092q18 -211 18 -414v-405q0 -53 6 -117q-8 -27 -27 -27q-99 17 -99 63q-15 310 -45 579q-22 171 -36 171h-3q-24 0 -39 3q-26 -3 -45 -3q-15 0 -87 6q-12 -21 -54 -249 q-30 -104 -111 -450q-24 -75 -45 -75q-87 11 -87 33zM266 527q0 -29 132 -39l18 3h45q33 0 33 30v33q0 58 -30 336q-27 549 -69 549h-12l-36 3q0 -2 -6 -21q0 -94 -30 -453q0 -160 -45 -441z" />
<glyph unicode="b" horiz-adv-x="700" d="M-6 -366q0 4 28 23v3q-5 12 -5 33l4 93q0 24 -1 63l3 6l-2 27q12 816 12 1172q0 275 -7 275q-7 120 -7 198v33l1 15q1 28 -10 46q6 26 26 26h2q53 -23 128 -26q306 -10 381 -172q35 -84 35 -170v-17q-13 -390 -131 -500q-13 -14 -22 -26v-3q160 -129 203 -293 q32 -179 32 -404q0 -56 -2 -116q-4 -115 -141 -238q-104 -67 -246 -76q-74 -9 -129 -10q-12 3 -21 4v-3l-6 3q-20 0 -66 -4q-60 2 -59 35v3zM119 1479q9 -23 9 -82q0 -16 -1 -35q35 -282 35 -481q0 -38 -1 -73v-15q0 -72 27 -73h5q98 0 199 152q46 95 69 268 q-12 167 -23 199q-29 103 -85 135q-17 24 -122 40l-6 -3q-9 1 -21 4h-7q-59 0 -60 -16q-18 -13 -18 -20zM165 565l8 -199q15 -149 15 -439q0 -87 -1 -186q1 -30 26 -30l3 -1h16q87 0 135 31q189 76 199 356q1 24 1 46q0 206 -67 293q-156 179 -270 183h-9q-30 0 -37 -13v-3 q12 -14 12 -15l-1 -9q-24 1 -30 -14z" />
<glyph unicode="c" horiz-adv-x="800" d="M51 687q0 509 177 774q75 109 198 147q212 39 264 39h54q78 0 78 -114v-27q0 -51 -51 -51q-141 -12 -225 -42q-116 -23 -174 -78q-87 -111 -87 -240q-24 -312 -24 -396q0 -216 48 -438q58 -214 141 -264q238 -147 339 -171q60 -18 60 -24q3 -6 3 -9q0 -138 -48 -138 q-40 -3 -60 -3q-125 0 -333 99q-176 96 -279 381q-81 244 -81 555z" />
<glyph unicode="d" horiz-adv-x="1063" d="M48 1490q0 153 24 153q34 6 162 9q146 0 372 -111q194 -114 294 -384q138 -343 138 -588q0 -379 -231 -675q-112 -120 -171 -147q-104 -56 -210 -90q-78 -18 -276 -57q-84 0 -84 48v69l12 468q-27 785 -27 864q3 38 3 93v39q0 61 -6 309zM183 1490q9 -46 24 -357v-144 q0 -17 3 -48q-3 -5 -3 -15l27 -858q0 -92 -3 -276q12 -30 60 -30q70 25 81 33q155 69 297 198q213 242 213 558v33q0 216 -90 429q-68 155 -228 303q-156 112 -258 162q-79 15 -93 30q-30 -6 -30 -18z" />
<glyph unicode="e" horiz-adv-x="862" d="M44 1564q0 75 27 75q12 3 24 3q24 0 39 -3q74 6 213 6h117q195 -12 309 -12q42 0 42 -69q0 -87 -21 -87q-7 0 -12 -3q-38 0 -204 9h-9q-30 0 -75 -3q-3 0 -9 3q-33 -3 -57 -3h-72q-108 0 -108 -18q-2 -6 -6 -60q11 -345 21 -345h3q333 0 333 -36q4 -47 6 -51 q0 -99 -24 -99h-6q-50 0 -78 -3q-59 3 -129 3q-87 0 -93 -15v-18q39 -233 39 -831v-105h3q343 -18 444 -18q83 3 135 3q30 -16 30 -90q2 0 12 -99q0 -25 -33 -30q-113 12 -123 12q-645 -24 -645 -36q-3 0 -9 3q-48 -6 -57 -6q-18 0 -18 27v363q0 17 3 48l-3 6q0 3 3 3l-3 36 q-6 629 -6 693q6 310 6 426z" />
<glyph unicode="f" d="M47 1669q0 8 30 24q104 -3 150 -3h90q91 0 435 12h75q36 0 36 -42q-11 -114 -36 -114q0 -11 -291 -18q-51 0 -102 3l-195 -9l-3 -6q0 -72 30 -339q3 -80 3 -171v-42l12 -3q42 0 219 3l18 3q16 -3 30 -3h60q45 0 45 -81q4 0 12 -57q0 -25 -99 -36q-46 -11 -246 -30 q-32 0 -51 -21q0 -31 3 -96q-3 -244 -3 -333q0 -6 -3 -33q0 -3 3 -3l-3 -27q3 -455 6 -556q-5 -69 -36 -69q-88 -12 -102 -12q-69 17 -69 48q-3 116 -3 171h-3q0 3 3 3q0 4 -3 30l-6 289v54q0 74 9 1020q0 41 -15 444z" />
<glyph unicode="g" horiz-adv-x="900" d="M54 685q3 16 3 27v72q1 165 60 387q81 199 159 270q178 159 303 159h6q91 0 201 -66q54 -57 63 -57q32 0 48 -27q-31 -135 -42 -135q0 -6 -15 -6h-3q-86 57 -213 57q-134 0 -243 -138q-58 -130 -99 -282q-45 -183 -45 -291q4 -160 117 -459q131 -259 345 -342q6 8 6 9 q0 10 -3 15q24 181 24 318q0 111 -18 111q-38 12 -156 33q-60 15 -60 54q0 69 24 69l15 3l90 -6q2 0 12 3q237 -9 237 -24q22 0 30 -369q-7 -328 -24 -375q0 -39 -60 -39q-85 0 -105 -3q-182 0 -381 207q-95 121 -168 294q-108 319 -108 531z" />
<glyph unicode="h" horiz-adv-x="700" d="M10 1673q2 15 18 15h6q17 0 39 -33q15 -3 81 -6q36 3 54 3q39 -8 39 -30q-6 -14 -9 -102l18 -594v-93q0 -26 3 -81q64 -27 225 -27q6 39 6 96q0 40 -3 48q3 53 3 90v183q0 35 -6 336q0 3 -3 9q3 5 3 12t-3 45q0 3 3 9q-3 21 -3 33v9q0 102 21 102l36 3q156 0 156 -57 q6 -40 6 -120q0 -108 -6 -255l6 -309q-21 -390 -21 -540q0 -139 15 -630l3 -12q0 -32 -108 -39q0 -3 -45 -9q-21 0 -21 135q-16 693 -39 693h-108l-135 12q-2 -5 -6 -36q12 -186 12 -228v-66q0 -44 -3 -120l3 -18l-3 -18q3 -60 3 -105v-81q0 -17 -3 -48l3 -6q-3 -33 -3 -57 v-48q0 -54 -51 -54q-40 0 -138 -21q-18 6 -18 24v9q-6 132 -6 144v27q0 54 15 54q9 0 9 9q-21 327 -21 552l-3 12q0 3 3 3q-6 147 -6 441v30q0 12 -3 33q0 3 3 3q0 15 -3 36q3 220 3 258q0 375 -18 375z" />
<glyph unicode="i" horiz-adv-x="400" d="M-27 1562v6q-1 36 23 37q85 18 152 26q21 0 39 -0.5t33 0.5q47 8 63 8h3h4q53 0 55 -58l3 -72q1 -32 -35 -43q-33 -6 -32 -16v-12q3 -94 8 -153q2 -38 2 -253q0 -143 -1 -365q10 -284 10 -578q0 -126 -2 -253q2 -54 23 -54q54 -6 55 -25l-3 -6l1 -33v-17q0 -71 -24 -71 q0 -5 -203 -25q-141 4 -142 34q-10 66 -10 97q0 33 94 65q0 423 -11 1342q2 0 2 62q0 74 -3 238q-97 15 -98 53q-4 35 -6 66z" />
<glyph unicode="j" horiz-adv-x="800" d="M-7 -150q0 39 156 51q170 36 213 72q98 61 150 243q75 207 75 510l-3 18q0 15 3 60q-33 432 -33 552q0 62 3 276q3 6 3 9q-6 11 -6 24q18 10 18 12q47 -3 69 -3q26 0 81 3q36 -13 36 -36v-93l33 -456q9 -128 9 -321v-75q0 -92 -57 -504q-36 -166 -129 -255 q-103 -90 -195 -132q-127 -72 -234 -93q-24 -8 -99 -12q-78 0 -78 45q-15 90 -15 105z" />
<glyph unicode="k" d="M0 -331q9 11 9 21v162q0 287 12 483h-3q3 6 3 9q12 237 15 408h-3q0 3 3 3q-3 27 -3 33q0 554 -18 789v51q0 33 114 33q75 0 75 -42q13 -397 24 -534q9 -51 21 -192h9q184 504 234 669q16 96 45 96h9q49 0 96 3q78 0 78 -36q-39 -191 -93 -327q-194 -537 -312 -720v-9 q115 -169 339 -480l228 -357q0 -2 21 -39v-3q0 -34 -114 -42q-6 0 -21 -6q-31 3 -48 3h-18q-28 0 -102 123q-89 113 -336 465l-9 6h-3q0 -49 15 -546q-11 -42 -45 -42q-20 9 -33 9h-30q-91 0 -135 -18q-24 3 -24 24v3z" />
<glyph unicode="l" d="M9 1602q0 36 54 36q38 0 141 -3q39 -9 39 -39q9 -272 39 -675l15 -759q6 -34 15 -255v-6l3 -6q307 6 516 12q57 0 57 -57l12 -108q0 -31 -39 -36q-17 0 -33 3q-188 -21 -558 -39q0 -5 -132 -12q-63 19 -63 63q-24 325 -39 1251q-12 181 -27 630z" />
<glyph unicode="m" horiz-adv-x="1103" d="M27 -239q0 4 9 93q-4 201 -4 554q0 441 6 1118q3 111 30 110q45 13 152 28q35 -2 190 -226q89 -130 159 -258h3q16 20 123 272q10 10 68 136q15 45 58 45h4l244 16q12 0 31 -31q-6 -50 -25 -395q0 -3 2 -19q-4 -32 -5 -56q6 -431 27 -1367l-4 -36q2 -22 1 -54h3 q0 -19 -40 -29h-6q-117 4 -116 31q-12 1 -12 237q0 97 2 235q-11 109 -13 400q-48 598 -48 756v26h-3q-11 -6 -86 -141q-54 -79 -179 -300q-22 -5 -24 -5q-13 0 -112 139q-125 153 -155 200q-59 107 -74 108l-1 -3q-3 -182 -3 -318q0 -186 6 -285q17 -137 26 -557l18 -430 v-3q-16 -23 -43 -22l-36 1h-1q-18 0 -117 -26l-15 1q-18 8 -23 22q6 9 6 14q-11 1 -23 19z" />
<glyph unicode="n" horiz-adv-x="1037" d="M37 1670q11 8 39 15q50 -3 78 -3q27 0 60 3q44 -6 60 -6q41 3 57 3q34 0 72 -126q59 -113 195 -534q168 -461 195 -546h6v36q0 235 3 438q-3 155 -6 219q0 3 3 9q-3 42 -3 72v87q0 84 9 288q-3 33 -3 60q0 15 144 15h15q29 0 45 -30l-3 -18q0 -117 -12 -390q3 -23 3 -48 q0 -227 18 -588l-51 -888q-10 -66 -48 -66q-19 0 -30 3q-52 -3 -171 -6q-19 0 -21 27l18 441v9q0 59 -153 390q-121 361 -207 507q-81 170 -99 222h-9v-3q15 -564 21 -891l39 -708q3 0 3 -12q0 -34 -78 -39l-51 -9l-36 3q-43 -3 -48 -3q-11 3 -18 12l12 33h-18q-18 8 -18 54 q15 39 15 120l-3 393q0 20 -3 30q3 45 3 84v18q0 258 12 525q0 3 -3 3l3 15v51q-12 592 -33 687q-3 26 -3 42z" />
<glyph unicode="o" horiz-adv-x="961" d="M35 837q0 479 174 654q82 126 294 189q38 9 66 9h36q63 0 99 -33q43 -14 75 -72q55 -64 123 -474q42 -253 42 -426v-99q0 -600 -189 -816q-156 -126 -261 -126q0 -3 -9 -3q-149 0 -303 237q-147 238 -147 960zM146 738q0 -159 33 -387q57 -343 102 -408 q108 -144 213 -144h9q20 0 66 33q80 50 117 123q43 96 72 306q42 260 42 477q0 108 -81 525q-10 66 -78 201q-42 49 -171 78q-48 0 -162 -108q-162 -215 -162 -618v-78z" />
<glyph unicode="p" horiz-adv-x="866" d="M34 -214q0 7 27 18v126q0 84 6 216q-6 488 -21 849q0 3 3 3l-3 36q12 663 24 663q49 21 105 21h3q90 0 348 -81q169 -69 237 -204q43 -70 75 -189q18 -76 18 -123q0 -124 -117 -276q-132 -132 -360 -198q-123 -31 -123 -48v-21q0 -42 9 -126q0 -334 -30 -783q3 -21 3 -24 q-19 -36 -39 -36q-16 3 -24 3l-45 -12q-75 0 -75 30q0 27 -21 156zM202 1475l9 -246q0 -39 -3 -153q3 -133 3 -207q0 -24 -6 -84q0 -48 27 -48q132 30 174 60q59 22 165 132q114 100 114 258q0 154 -93 231q-217 162 -354 162q-36 -5 -36 -42v-63z" />
<glyph unicode="q" horiz-adv-x="1200" d="M32 580q0 174 96 603q53 218 183 345q122 114 291 114q37 -3 39 -3q0 7 24 9q176 -42 255 -123q258 -251 258 -768q0 -291 -114 -516q-47 -116 -93 -192v-3l141 -237l24 -54q-72 -90 -108 -90h-3q-4 0 -93 111q-107 102 -114 102q-145 -141 -198 -147q-69 -21 -90 -21h-3 q-104 0 -255 81q-115 68 -177 258q-63 231 -63 531zM143 517q0 -245 99 -420q102 -228 264 -228q58 0 120 39q135 121 135 135q-3 0 -3 6q-111 162 -111 186q0 10 63 30q11 0 36 -33q73 -96 78 -96l42 27q42 0 114 279l36 390q0 143 -24 252q-40 224 -144 348 q-107 89 -213 99h-12q-66 -11 -129 -30q-64 -18 -132 -129q-81 -152 -126 -291q-93 -368 -93 -564z" />
<glyph unicode="r" horiz-adv-x="900" d="M23 1582l1 18q2 54 156 54q18 0 38 -1q38 4 108 4q50 0 117 -2l60 -2q255 -9 324 -264q44 -195 44 -423q0 -44 -2 -89q-10 -285 -226 -448q-15 -15 -16 -27v-3q68 -216 135 -683v-3q-1 -35 -130 -40q0 -2 -94 -12q-15 5 -14 22l1 21q-31 340 -46 412l-37 215q-3 0 -3 3 q-114 -11 -181 -24l-4 -21q-1 -24 27 -256l7 -225q-4 -36 -6 -81v-21q-2 -45 -95 -54l-45 2q-9 0 -64 -16h-3q-11 1 -19 52q-3 0 -5 15q5 240 10 378l4 135q1 31 1 79q0 301 -43 1285zM162 1508q-1 -3 2 -3q4 -75 16 -237q7 -1 7 -231q0 -126 -2 -319l-3 -90v-17 q0 -42 8 -85v-14q0 -67 27 -68l21 -1h8q10 0 10 2q101 4 207 62q148 72 201 167q44 74 71 244q0 6 0.5 23t-0.5 43q0 3 7 51q1 23 1 46q0 219 -81 311q-81 150 -316 158l-63 2q-121 -25 -121 -35v-9z" />
<glyph unicode="s" horiz-adv-x="800" d="M0 -180q14 24 222 114q215 115 243 165q93 117 93 318q0 59 -168 204q-270 277 -270 447q0 133 72 324q32 76 132 171q110 77 222 99q32 12 57 12h3q192 -16 192 -63l12 -102q0 -7 -21 -18q-56 21 -135 21q-136 0 -246 -108q-36 -44 -78 -156q-24 -68 -24 -105 q0 -137 165 -300q2 -10 183 -189q81 -116 81 -210q3 0 3 -3q0 -140 -99 -312q-30 -98 -180 -249q-125 -119 -249 -150q-67 -15 -150 -30q-57 0 -57 99q-3 0 -3 21z" />
<glyph unicode="t" horiz-adv-x="941" d="M2 1390q3 42 3 72v12q0 6 3 48l48 9q1 -6 6 -6h108q110 0 576 51q131 24 162 24t33 -48v-6q0 -108 -36 -108q-115 -9 -216 -9q-69 -12 -69 -27q-3 -5 -3 -12q6 -184 9 -432l-9 -756l-21 -372q-4 -66 -33 -66q-103 -9 -183 -21q-24 0 -24 39q3 26 3 42v15q51 1055 51 1188 v15q0 345 -12 345l-363 -15q-27 0 -33 18z" />
<glyph unicode="u" horiz-adv-x="1100" d="M20 1598v6q0 8 24 12h84q78 0 78 -18q-9 -15 -9 -87v-15q0 -11 3 -27l-3 -6l3 -21q-3 -120 -6 -159q18 -308 27 -834q23 -380 63 -486q43 -116 135 -162q45 -15 60 -15q205 0 240 42q60 35 87 114q36 72 66 840q-15 241 -15 480h-3l3 6v3q0 7 -3 12q0 3 3 3q-3 35 -3 51 v225q0 48 45 48q67 0 108 6q36 -7 36 -30v-39q17 -140 42 -648q15 -97 15 -285v-30q0 -274 -111 -660q-91 -204 -135 -237q-46 -49 -183 -75q-50 -12 -90 -12h-6q-371 0 -468 258q-45 157 -45 348q-39 539 -39 636v423q0 64 3 144q-3 5 -3 105v36q0 3 6 24v3q0 10 -9 21z " />
<glyph unicode="v" horiz-adv-x="1300" d="M-24 1528q-1 6 -1 12q0 60 154 60q47 0 63 -51q35 -74 54 -237q0 -21 126 -345q60 -129 114 -333l198 -531l57 -189h3q12 18 84 333q84 287 174 804q52 248 147 525q17 9 78 9h36q72 -8 72 -36q-26 -191 -102 -462l-72 -297q-84 -275 -159 -612q-60 -239 -135 -468 q-34 -93 -78 -93h-39q-30 0 -72 3q-12 -2 -12 -6q-29 0 -45 90q-123 350 -237 612q-168 436 -291 858q-87 253 -117 354z" />
<glyph unicode="w" horiz-adv-x="1900" d="M0 1549q0 21 96 21h69q63 0 63 -36q9 -46 45 -174q54 -232 108 -441q0 -15 93 -396q0 -74 96 -381q12 -51 18 -51q69 301 114 546q0 26 111 30l51 9l21 -3h24q32 0 66 9q36 0 75 -171q48 -209 147 -498q0 -9 6 -9q5 5 48 141q111 370 222 708q120 404 186 732q9 15 30 15 q171 -10 171 -30q9 -3 9 -18q0 -8 -33 -51q-36 -75 -66 -243q0 -46 -81 -336q-30 -136 -222 -765q-27 -89 -87 -336q-24 -80 -39 -165q0 -14 -198 -24h-18q-47 0 -66 102q-29 76 -72 300q-45 144 -99 372h-3q-6 0 -114 -465q-70 -300 -96 -300l-123 -30q-44 0 -60 90 q-186 721 -258 981q-105 344 -177 663q-18 56 -57 204z" />
<glyph unicode="x" horiz-adv-x="1000" d="M0 1578q4 6 8 11l-8 11l73 18q15 12 65 15l27 7v-5h21q20 0 63 -168q90 -277 201 -528q24 -88 33 -99l271 737q32 100 51 105q0 15 21 15q29 3 63 3h27q26 0 39 -21v-12q-33 -33 -156 -390q-124 -342 -226 -626q-6 -1 -12 -15q151 -293 249 -501q60 -143 126 -336 q19 -34 69 -141q-26 -45 -90 -45h-54q-17 0 -45 -6q-14 0 -45 111q-117 308 -219 498q-95 186 -99 186q-153 -448 -225 -648q-33 -138 -54 -138q-5 -3 -12 -3q-13 0 -42 18q-61 -12 -72 -12q-17 0 -30 12q0 58 66 234q147 391 252 738v3q-18 96 -123 381q-180 470 -213 591z " />
<glyph unicode="y" horiz-adv-x="936" d="M-52 1679q0 5 12 9l21 -3q21 0 21 6l21 -3h18l120 12q45 0 75 -102q72 -166 201 -561q33 -92 60 -132q11 0 72 198q138 398 198 552h6l27 -3q22 8 105 18h6q36 -21 36 -33q-24 -75 -165 -459q-54 -201 -159 -408q-39 -49 -39 -93l-3 -27q6 -45 6 -99l-48 -681 q-13 -276 -36 -276q-41 -8 -117 -15q-23 0 -33 24q0 49 3 96q-6 269 -6 369q0 379 18 630q-27 54 -204 471q-68 150 -168 411q-48 86 -48 99z" />
<glyph unicode="z" horiz-adv-x="910" d="M-4 -376q38 123 219 498q62 147 162 327q198 323 468 1011l-3 6l-420 -33h-6q-6 -1 -6 -6l-54 -6q-5 0 -12 177q18 33 48 33q69 0 513 24q54 0 87 3q12 -3 21 -3q31 3 51 3q57 -12 57 -39q-29 -100 -207 -513q-94 -192 -150 -324q-138 -285 -282 -594q-61 -115 -195 -333 q-27 -39 -27 -51h9q68 6 72 6h120q25 0 246 9h45l135 12q60 0 60 -162q-13 -5 -90 -12q0 -4 -30 -9q-17 0 -33 3q-234 0 -498 -30q-3 0 -3 3q-161 -6 -255 -24q-42 7 -42 24z" />
<glyph unicode="&#x2000;" horiz-adv-x="859" />
<glyph unicode="&#x2001;" horiz-adv-x="1718" />
<glyph unicode="&#x2002;" horiz-adv-x="859" />
<glyph unicode="&#x2003;" horiz-adv-x="1718" />
<glyph unicode="&#x2004;" horiz-adv-x="572" />
<glyph unicode="&#x2005;" horiz-adv-x="429" />
<glyph unicode="&#x2006;" horiz-adv-x="286" />
<glyph unicode="&#x2007;" horiz-adv-x="286" />
<glyph unicode="&#x2008;" horiz-adv-x="214" />
<glyph unicode="&#x2009;" horiz-adv-x="343" />
<glyph unicode="&#x200a;" horiz-adv-x="95" />
<glyph unicode="&#x202f;" horiz-adv-x="343" />
<glyph unicode="&#x205f;" horiz-adv-x="429" />
<glyph unicode="&#x25fc;" horiz-adv-x="1700" d="M0 0v1700h1700v-1700h-1700z" />
</font>
</defs>
</svg>
